<?xml version="1.0" encoding="utf-8"?>
<svg version="1.1" xmlns:xlink="http://www.w3.org/1999/xlink" width="8px" height="8px" xmlns="http://www.w3.org/2000/svg">
  <g transform="matrix(1 0 0 1 -791 -741 )">
    <path d="M 7.8589616824515 0.822031555628162  C 7.8589616824515 0.822031555628162  4.68099323807966 4  4.68099323807966 4  C 4.68099323807966 4  7.8589616824515 7.17796844437184  7.8589616824515 7.17796844437184  C 8.04701277251615 7.36601953443649  8.04701277251615 7.67091059238688  7.8589616824515 7.8589616824515  C 7.67091059238688 8.04701277251615  7.36601953443649 8.04701277251615  7.17796844437184 7.8589616824515  C 7.17796844437184 7.8589616824515  4 4.68099323807966  4 4.68099323807966  C 4 4.68099323807966  0.822031555628162 7.8589616824515  0.822031555628162 7.8589616824515  C 0.633980465563506 8.04701277251615  0.32908940761312 8.04701277251615  0.141038317548502 7.8589616824515  C -0.0470127725161547 7.67091059238688  -0.0470127725161547 7.36601953443649  0.141038317548502 7.17796844437184  C 0.141038317548502 7.17796844437184  3.31900676192034 4  3.31900676192034 4  C 3.31900676192034 4  0.141038317548502 0.822031555628162  0.141038317548502 0.822031555628162  C -0.0470127725161547 0.633980465563506  -0.0470127725161547 0.32908940761312  0.141038317548502 0.141038317548502  C 0.32908940761312 -0.0470127725161547  0.633980465563506 -0.0470127725161547  0.822031555628162 0.141038317548502  C 0.822031555628162 0.141038317548502  4 3.31900676192034  4 3.31900676192034  C 4 3.31900676192034  7.17796844437184 0.141038317548502  7.17796844437184 0.141038317548502  C 7.36601953443649 -0.0470127725161547  7.67091059238688 -0.0470127725161547  7.8589616824515 0.141038317548502  C 8.04701277251615 0.32908940761312  8.04701277251615 0.633980465563506  7.8589616824515 0.822031555628162  Z " fill-rule="nonzero" fill="#999999" stroke="none" transform="matrix(1 0 0 1 791 741 )" />
  </g>
</svg>