<?xml version="1.0" encoding="utf-8"?>
<svg version="1.1" xmlns:xlink="http://www.w3.org/1999/xlink" width="12px" height="12px" xmlns="http://www.w3.org/2000/svg">
  <defs>
    <mask fill="white" id="clip10">
      <path d="M 11.7929378908922 11.7929378908923  C 11.5168550787486 12.0690207030359  11.0692363989129 12.0690207030359  10.7931535867692 11.7929378908923  C 10.7931535867692 11.7929378908923  9.0701615360785 10.0699458402016  8.39441730806976 9.39420161219391  C 7.50958500770901 10.1234770783219  6.38461161546746 10.5599999999999  5.16000000000003 10.5599999999999  C 2.31021069103195 10.5599999999999  0 8.1960634789441  0 5.27999999999997  C 0 2.36393652105608  2.31021069103195 0  5.16000000000003 0  C 8.00978930896804 0  10.32 2.36393652105608  10.32 5.27999999999997  C 10.32 6.42731668066972  9.96237797557018 7.48916377140608  9.35497577723493 8.35519147311174  C 10.0004108615953 9.00062655747229  11.7929378908922 10.7931535867692  11.7929378908922 10.7931535867692  C 12.0690207030359 11.0692363989128  12.0690207030359 11.5168550787487  11.7929378908922 11.7929378908923  Z M 5.27999999999997 1.44000000000005  C 3.15922656076799 1.44000000000005  1.44 3.15922656076805  1.44 5.27999999999997  C 1.44 7.4007734392319  3.15922656076799 9.11999999999989  5.27999999999997 9.11999999999989  C 7.40077343923201 9.11999999999989  9.12 7.4007734392319  9.12 5.27999999999997  C 9.12 3.15922656076805  7.40077343923201 1.44000000000005  5.27999999999997 1.44000000000005  Z " fill-rule="evenodd" />
    </mask>
  </defs>
  <g transform="matrix(1 0 0 1 -840 -348 )">
    <path d="M 11.7929378908922 11.7929378908923  C 11.5168550787486 12.0690207030359  11.0692363989129 12.0690207030359  10.7931535867692 11.7929378908923  C 10.7931535867692 11.7929378908923  9.0701615360785 10.0699458402016  8.39441730806976 9.39420161219391  C 7.50958500770901 10.1234770783219  6.38461161546746 10.5599999999999  5.16000000000003 10.5599999999999  C 2.31021069103195 10.5599999999999  0 8.1960634789441  0 5.27999999999997  C 0 2.36393652105608  2.31021069103195 0  5.16000000000003 0  C 8.00978930896804 0  10.32 2.36393652105608  10.32 5.27999999999997  C 10.32 6.42731668066972  9.96237797557018 7.48916377140608  9.35497577723493 8.35519147311174  C 10.0004108615953 9.00062655747229  11.7929378908922 10.7931535867692  11.7929378908922 10.7931535867692  C 12.0690207030359 11.0692363989128  12.0690207030359 11.5168550787487  11.7929378908922 11.7929378908923  Z M 5.27999999999997 1.44000000000005  C 3.15922656076799 1.44000000000005  1.44 3.15922656076805  1.44 5.27999999999997  C 1.44 7.4007734392319  3.15922656076799 9.11999999999989  5.27999999999997 9.11999999999989  C 7.40077343923201 9.11999999999989  9.12 7.4007734392319  9.12 5.27999999999997  C 9.12 3.15922656076805  7.40077343923201 1.44000000000005  5.27999999999997 1.44000000000005  Z " fill-rule="nonzero" fill="#999999" stroke="none" transform="matrix(1 0 0 1 840 348 )" />
    <path d="M 11.7929378908922 11.7929378908923  C 11.5168550787486 12.0690207030359  11.0692363989129 12.0690207030359  10.7931535867692 11.7929378908923  C 10.7931535867692 11.7929378908923  9.0701615360785 10.0699458402016  8.39441730806976 9.39420161219391  C 7.50958500770901 10.1234770783219  6.38461161546746 10.5599999999999  5.16000000000003 10.5599999999999  C 2.31021069103195 10.5599999999999  0 8.1960634789441  0 5.27999999999997  C 0 2.36393652105608  2.31021069103195 0  5.16000000000003 0  C 8.00978930896804 0  10.32 2.36393652105608  10.32 5.27999999999997  C 10.32 6.42731668066972  9.96237797557018 7.48916377140608  9.35497577723493 8.35519147311174  C 10.0004108615953 9.00062655747229  11.7929378908922 10.7931535867692  11.7929378908922 10.7931535867692  C 12.0690207030359 11.0692363989128  12.0690207030359 11.5168550787487  11.7929378908922 11.7929378908923  Z " stroke-width="2" stroke="#797979" fill="none" transform="matrix(1 0 0 1 840 348 )" mask="url(#clip10)" />
    <path d="M 5.27999999999997 1.44000000000005  C 3.15922656076799 1.44000000000005  1.44 3.15922656076805  1.44 5.27999999999997  C 1.44 7.4007734392319  3.15922656076799 9.11999999999989  5.27999999999997 9.11999999999989  C 7.40077343923201 9.11999999999989  9.12 7.4007734392319  9.12 5.27999999999997  C 9.12 3.15922656076805  7.40077343923201 1.44000000000005  5.27999999999997 1.44000000000005  Z " stroke-width="2" stroke="#797979" fill="none" transform="matrix(1 0 0 1 840 348 )" mask="url(#clip10)" />
  </g>
</svg>