<?xml version="1.0" encoding="utf-8"?>
<svg version="1.1" xmlns:xlink="http://www.w3.org/1999/xlink" width="988px" height="181px" xmlns="http://www.w3.org/2000/svg">
  <g transform="matrix(1 0 0 1 -246 -720 )">
    <path d="M 986.25 179.5  L 1.8 179.5  C 1.8 179.5  0.300000000000004 89.8000000000001  0.300000000000004 90.2  C 14.8801937867489 89.8220244596549  54.5357090013969 88  85 88  C 137.25 88  133 116  176 116  C 219 116  203.291417508256 64.205553807075  269 64.6666666666665  C 316.5 65  323.418217208782 82.4816713087945  352 82.6666666666665  C 403.5 83  399 0.33333333333303  450 0.666666666666515  C 501 1  474.540086594232 86.6037003010063  533 92  C 565.5 95  578.75 91.5  622 94  C 665.25 96.5  664.5 147  715 147.333333333333  C 765.5 147.666666666667  754.665094646957 129.190878621366  805 129.333333333333  C 859.390339258753 129.487265481583  862 148.666666666667  902 149.333333333333  C 935.535575636709 149.892259593945  962.4 115  984 116  C 984.6 116.6  986.25 179.5  986.25 179.5  Z " fill-rule="nonzero" fill="#2db6f4" stroke="none" transform="matrix(1 0 0 1 246 720 )" />
  </g>
</svg>