<?xml version="1.0" encoding="utf-8"?>
<svg version="1.1" xmlns:xlink="http://www.w3.org/1999/xlink" width="987px" height="153px" xmlns="http://www.w3.org/2000/svg">
  <g transform="matrix(1 0 0 1 -245 -720 )">
    <path d="M 0 89.3333333333333  C 0 89.3333333333333  32.75 88  85 88  C 137.25 88  133 116  176 116  C 219 116  203.291417508256 64.205553807075  269 64.6666666666665  C 316.5 65  323.418217208782 82.4816713087945  352 82.6666666666665  C 403.5 83  399 0.33333333333303  450 0.666666666666515  C 501 1  474.540086594232 86.6037003010063  533 92  C 565.5 95  578.75 91.5  622 94  C 665.25 96.5  664.5 147  715 147.333333333333  C 765.5 147.666666666667  754.665094646957 129.190878621366  805 129.333333333333  C 859.390339258753 129.487265481583  862 148.666666666667  902 149.333333333333  C 942 150  958.330578512396 112.512396694215  983 114  " stroke-width="2" stroke="#2db7f5" fill="none" transform="matrix(1 0 0 1 246 721 )" />
  </g>
</svg>