<?xml version="1.0" encoding="utf-8"?>
<svg version="1.1" xmlns:xlink="http://www.w3.org/1999/xlink" width="117px" height="75px" xmlns="http://www.w3.org/2000/svg">
  <defs>
    <mask fill="white" id="clip7">
      <path d="M 0 70.9821428571429  L 0 4.01785714285714  C 0 1.76785714285714  2.27117647058824 0  5.16176470588235 0  L 111.838235294118 0  C 114.728823529412 0  117 1.76785714285714  117 4.01785714285714  L 117 70.9821428571429  C 117 73.2321428571429  114.728823529412 75  111.838235294118 75  L 5.16176470588235 75  C 2.27117647058824 75  0 73.2321428571429  0 70.9821428571429  Z " fill-rule="evenodd" />
    </mask>
  </defs>
  <g transform="matrix(1 0 0 1 -675 -715 )">
    <path d="M 0 70.9821428571429  L 0 4.01785714285714  C 0 1.76785714285714  2.27117647058824 0  5.16176470588235 0  L 111.838235294118 0  C 114.728823529412 0  117 1.76785714285714  117 4.01785714285714  L 117 70.9821428571429  C 117 73.2321428571429  114.728823529412 75  111.838235294118 75  L 5.16176470588235 75  C 2.27117647058824 75  0 73.2321428571429  0 70.9821428571429  Z " fill-rule="nonzero" fill="#000000" stroke="none" transform="matrix(1 0 0 1 675 715 )" />
    <path d="M 0 70.9821428571429  L 0 4.01785714285714  C 0 1.76785714285714  2.27117647058824 0  5.16176470588235 0  L 111.838235294118 0  C 114.728823529412 0  117 1.76785714285714  117 4.01785714285714  L 117 70.9821428571429  C 117 73.2321428571429  114.728823529412 75  111.838235294118 75  L 5.16176470588235 75  C 2.27117647058824 75  0 73.2321428571429  0 70.9821428571429  Z " stroke-width="2" stroke="#ebebeb" fill="none" transform="matrix(1 0 0 1 675 715 )" mask="url(#clip7)" />
  </g>
</svg>