<?xml version="1.0" encoding="utf-8"?>
<svg version="1.1" xmlns:xlink="http://www.w3.org/1999/xlink" width="10px" height="10px" xmlns="http://www.w3.org/2000/svg">
  <g transform="matrix(1 0 0 1 -691 -760 )">
    <path d="M 696 760  C 698.8 760  701 762.2  701 765  C 701 767.8  698.8 770  696 770  C 693.2 770  691 767.8  691 765  C 691 762.2  693.2 760  696 760  Z " fill-rule="nonzero" fill="#42bef6" stroke="none" />
    <path d="M 696 760.5  C 698.52 760.5  700.5 762.48  700.5 765  C 700.5 767.52  698.52 769.5  696 769.5  C 693.48 769.5  691.5 767.52  691.5 765  C 691.5 762.48  693.48 760.5  696 760.5  Z " stroke-width="1" stroke="#2db7f5" fill="none" />
  </g>
</svg>