<?xml version="1.0" encoding="utf-8"?>
<svg version="1.1" xmlns:xlink="http://www.w3.org/1999/xlink" width="9px" height="8px" xmlns="http://www.w3.org/2000/svg">
  <g transform="matrix(1 0 0 1 -637 -718 )">
    <path d="M 641.5 719  C 643.46 719  645 720.32  645 722  C 645 723.68  643.46 725  641.5 725  C 639.54 725  638 723.68  638 722  C 638 720.32  639.54 719  641.5 719  Z " fill-rule="nonzero" fill="#ffffff" stroke="none" />
    <path d="M 641.5 719  C 643.46 719  645 720.32  645 722  C 645 723.68  643.46 725  641.5 725  C 639.54 725  638 723.68  638 722  C 638 720.32  639.54 719  641.5 719  Z " stroke-width="2" stroke="#2db7f5" fill="none" />
  </g>
</svg>