<?xml version="1.0" encoding="utf-8"?>
<svg version="1.1" xmlns:xlink="http://www.w3.org/1999/xlink" width="24px" height="24px" xmlns="http://www.w3.org/2000/svg">
  <g transform="matrix(1 0 0 1 -445 -277 )">
    <path d="M 24 12  C 24 5.37258300240001  18.6274169976 0  12 0  C 5.37258300240001 0  0 5.37258300240001  0 12  C 0 18.6274169976  5.37258300240001 24  12 24  C 18.6274169976 24  24 18.6274169976  24 12  Z M 14 12.5  C 14 13.3400000000001  13.34 14  12.5 14  C 11.66 14  11 13.3400000000001  11 12.5  L 11 6.5  C 11 5.65999999999985  11.66 5  12.5 5  C 13.34 5  14 5.65999999999985  14 6.5  L 14 12.5  Z M 12.5 16  C 13.3284271247 16  14 16.6715728753002  14 17.5  C 14 18.3284271246998  13.3284271247 19  12.5 19  C 11.6715728753 19  11 18.3284271246998  11 17.5  C 11 16.6715728753002  11.6715728753 16  12.5 16  Z " fill-rule="nonzero" fill="#ffbd00" stroke="none" transform="matrix(1 0 0 1 445 277 )" />
  </g>
</svg>