<?xml version="1.0" encoding="utf-8"?>
<svg version="1.1" xmlns:xlink="http://www.w3.org/1999/xlink" width="4px" height="8px" xmlns="http://www.w3.org/2000/svg">
  <defs>
    <mask fill="white" id="clip1">
      <path d="M 0.116994935368155 0.681791476873968  C 0.116994935368155 0.681791476873968  3.03565278554754 3.60000000000002  3.03565278554754 3.60000000000002  C 3.03565278554754 3.60000000000002  0.116994935368155 6.51820852312608  0.116994935368155 6.51820852312608  C -0.0389983117893848 6.67417775514048  -0.0389983117893848 6.92705384397482  0.116994935368155 7.08302307598922  C 0.272988182525694 7.23899230800362  0.525903207600152 7.23899230800362  0.681896454757691 7.08302307598922  C 0.681896454757691 7.08302307598922  3.88300506463179 3.88240727643154  3.88300506463179 3.88240727643154  C 4.03899831178944 3.72643804441714  4.03899831178944 3.47356195558291  3.88300506463179 3.31759272356851  C 3.88300506463179 3.31759272356851  0.681896454757691 0.116976924010828  0.681896454757691 0.116976924010828  C 0.525903207600152 -0.0389923080035715  0.272988182525694 -0.0389923080035715  0.116994935368155 0.116976924010828  C -0.0389983117893848 0.272946156025228  -0.0389983117893848 0.525822244859569  0.116994935368155 0.681791476873968  Z " fill-rule="evenodd" />
    </mask>
  </defs>
  <g transform="matrix(1 0 0 1 -145 -77 )">
    <path d="M 0.116994935368155 0.681791476873968  C 0.116994935368155 0.681791476873968  3.03565278554754 3.60000000000002  3.03565278554754 3.60000000000002  C 3.03565278554754 3.60000000000002  0.116994935368155 6.51820852312608  0.116994935368155 6.51820852312608  C -0.0389983117893848 6.67417775514048  -0.0389983117893848 6.92705384397482  0.116994935368155 7.08302307598922  C 0.272988182525694 7.23899230800362  0.525903207600152 7.23899230800362  0.681896454757691 7.08302307598922  C 0.681896454757691 7.08302307598922  3.88300506463179 3.88240727643154  3.88300506463179 3.88240727643154  C 4.03899831178944 3.72643804441714  4.03899831178944 3.47356195558291  3.88300506463179 3.31759272356851  C 3.88300506463179 3.31759272356851  0.681896454757691 0.116976924010828  0.681896454757691 0.116976924010828  C 0.525903207600152 -0.0389923080035715  0.272988182525694 -0.0389923080035715  0.116994935368155 0.116976924010828  C -0.0389983117893848 0.272946156025228  -0.0389983117893848 0.525822244859569  0.116994935368155 0.681791476873968  Z " fill-rule="nonzero" fill="#ffffff" stroke="none" transform="matrix(1 0 0 1 145 77 )" />
    <path d="M 0.116994935368155 0.681791476873968  C 0.116994935368155 0.681791476873968  3.03565278554754 3.60000000000002  3.03565278554754 3.60000000000002  C 3.03565278554754 3.60000000000002  0.116994935368155 6.51820852312608  0.116994935368155 6.51820852312608  C -0.0389983117893848 6.67417775514048  -0.0389983117893848 6.92705384397482  0.116994935368155 7.08302307598922  C 0.272988182525694 7.23899230800362  0.525903207600152 7.23899230800362  0.681896454757691 7.08302307598922  C 0.681896454757691 7.08302307598922  3.88300506463179 3.88240727643154  3.88300506463179 3.88240727643154  C 4.03899831178944 3.72643804441714  4.03899831178944 3.47356195558291  3.88300506463179 3.31759272356851  C 3.88300506463179 3.31759272356851  0.681896454757691 0.116976924010828  0.681896454757691 0.116976924010828  C 0.525903207600152 -0.0389923080035715  0.272988182525694 -0.0389923080035715  0.116994935368155 0.116976924010828  C -0.0389983117893848 0.272946156025228  -0.0389983117893848 0.525822244859569  0.116994935368155 0.681791476873968  Z " stroke-width="2" stroke="#00a0ff" fill="none" transform="matrix(1 0 0 1 145 77 )" mask="url(#clip1)" />
  </g>
</svg>