<?xml version="1.0" encoding="utf-8"?>
<svg version="1.1" xmlns:xlink="http://www.w3.org/1999/xlink" width="15px" height="16px" xmlns="http://www.w3.org/2000/svg">
  <defs>
    <mask fill="white" id="clip6">
      <path d="M 7.21788361710724 0  C 10.5085616391456 0  13.1761832497633 2.51348912375698  13.1761832497633 5.61403508771929  C 13.1761832497633 5.61403508771929  13.1761832497633 8.98245614035164  13.1761832497633 8.98245614035164  C 13.1761832497633 8.98245614035164  14.3598932666337 11.395229819971  14.3598932666337 11.395229819971  C 14.5909801050851 11.9758561504613  14.2787586114934 12.6230557815823  13.6625270422894 12.8407906555162  C 13.5287309711822 12.8880652064013  13.3870015742629 12.9122807017544  13.2441073076816 12.9122807017544  C 13.2441073076816 12.9122807017544  1.19165992653141 12.9122807017544  1.19165992653141 12.9122807017544  C 0.53352432212364 12.9122807017544  0 12.409582877003  0 11.7894736842105  C 0 11.6548357042702  0.025700440915151 11.521295288998  0.0758739675802644 11.395229819971  C 0.0758739675802644 11.395229819971  1.25958398445042 8.98245614035091  1.25958398445042 8.98245614035091  C 1.25958398445042 8.98245614035091  1.25958398445066 5.61403508771929  1.25958398445066 5.61403508771929  C 1.25958398445066 2.51348912375698  3.92720559506862 0  7.21788361710724 0  Z M 7.21804511278192 15.719298245614  C 8.54685052583461 15.719298245614  9.62406015037597 14.7139025960421  9.62406002334457 13.4736842105263  L 7.81954887218043 13.4736842105263  C 7.81954887218043 13.7837388069053  7.55024646604503 14.0350877192982  7.21804511278192 14.0350877192982  C 6.8858437595188 14.0350877192982  6.6165413533834 13.7837388069053  6.61654374653852 13.4736842105263  L 4.81203007518786 13.4736842105263  C 4.81203007518786 14.7139025960421  5.88923969972922 15.719298245614  7.21804511278192 15.719298245614  Z M 2.10526315789455 11  L 12.3308270676693 11  L 11.4068851772772 9.35289207486932  C 11.4068851772772 9.35289207486932  11.4068851772772 5.61403508771929  11.4068851772772 5.61403508771929  C 11.4068851772772 3.44365291294565  9.53147759988294 1.68421052631578  7.21804511278192 1.68421052631578  C 4.90461262568114 1.68421052631578  3.02920504828689 3.44365291294565  3.02920504828689 5.6140350877194  C 3.02920504828689 5.6140350877194  3.02920504828665 9.35289207486846  3.02920504828665 9.35289207486846  L 2.10526315789455 11  Z " fill-rule="evenodd" />
    </mask>
  </defs>
  <g transform="matrix(1 0 0 1 -905 -21 )">
    <path d="M 7.21788361710724 0  C 10.5085616391456 0  13.1761832497633 2.51348912375698  13.1761832497633 5.61403508771929  C 13.1761832497633 5.61403508771929  13.1761832497633 8.98245614035164  13.1761832497633 8.98245614035164  C 13.1761832497633 8.98245614035164  14.3598932666337 11.395229819971  14.3598932666337 11.395229819971  C 14.5909801050851 11.9758561504613  14.2787586114934 12.6230557815823  13.6625270422894 12.8407906555162  C 13.5287309711822 12.8880652064013  13.3870015742629 12.9122807017544  13.2441073076816 12.9122807017544  C 13.2441073076816 12.9122807017544  1.19165992653141 12.9122807017544  1.19165992653141 12.9122807017544  C 0.53352432212364 12.9122807017544  0 12.409582877003  0 11.7894736842105  C 0 11.6548357042702  0.025700440915151 11.521295288998  0.0758739675802644 11.395229819971  C 0.0758739675802644 11.395229819971  1.25958398445042 8.98245614035091  1.25958398445042 8.98245614035091  C 1.25958398445042 8.98245614035091  1.25958398445066 5.61403508771929  1.25958398445066 5.61403508771929  C 1.25958398445066 2.51348912375698  3.92720559506862 0  7.21788361710724 0  Z M 7.21804511278192 15.719298245614  C 8.54685052583461 15.719298245614  9.62406015037597 14.7139025960421  9.62406002334457 13.4736842105263  L 7.81954887218043 13.4736842105263  C 7.81954887218043 13.7837388069053  7.55024646604503 14.0350877192982  7.21804511278192 14.0350877192982  C 6.8858437595188 14.0350877192982  6.6165413533834 13.7837388069053  6.61654374653852 13.4736842105263  L 4.81203007518786 13.4736842105263  C 4.81203007518786 14.7139025960421  5.88923969972922 15.719298245614  7.21804511278192 15.719298245614  Z M 2.10526315789455 11  L 12.3308270676693 11  L 11.4068851772772 9.35289207486932  C 11.4068851772772 9.35289207486932  11.4068851772772 5.61403508771929  11.4068851772772 5.61403508771929  C 11.4068851772772 3.44365291294565  9.53147759988294 1.68421052631578  7.21804511278192 1.68421052631578  C 4.90461262568114 1.68421052631578  3.02920504828689 3.44365291294565  3.02920504828689 5.6140350877194  C 3.02920504828689 5.6140350877194  3.02920504828665 9.35289207486846  3.02920504828665 9.35289207486846  L 2.10526315789455 11  Z " fill-rule="nonzero" fill="#ffffff" stroke="none" transform="matrix(1 0 0 1 905 21 )" />
    <path d="M 7.21788361710724 0  C 10.5085616391456 0  13.1761832497633 2.51348912375698  13.1761832497633 5.61403508771929  C 13.1761832497633 5.61403508771929  13.1761832497633 8.98245614035164  13.1761832497633 8.98245614035164  C 13.1761832497633 8.98245614035164  14.3598932666337 11.395229819971  14.3598932666337 11.395229819971  C 14.5909801050851 11.9758561504613  14.2787586114934 12.6230557815823  13.6625270422894 12.8407906555162  C 13.5287309711822 12.8880652064013  13.3870015742629 12.9122807017544  13.2441073076816 12.9122807017544  C 13.2441073076816 12.9122807017544  1.19165992653141 12.9122807017544  1.19165992653141 12.9122807017544  C 0.53352432212364 12.9122807017544  0 12.409582877003  0 11.7894736842105  C 0 11.6548357042702  0.025700440915151 11.521295288998  0.0758739675802644 11.395229819971  C 0.0758739675802644 11.395229819971  1.25958398445042 8.98245614035091  1.25958398445042 8.98245614035091  C 1.25958398445042 8.98245614035091  1.25958398445066 5.61403508771929  1.25958398445066 5.61403508771929  C 1.25958398445066 2.51348912375698  3.92720559506862 0  7.21788361710724 0  Z " stroke-width="2" stroke="#797979" fill="none" transform="matrix(1 0 0 1 905 21 )" mask="url(#clip6)" />
    <path d="M 7.21804511278192 15.719298245614  C 8.54685052583461 15.719298245614  9.62406015037597 14.7139025960421  9.62406002334457 13.4736842105263  L 7.81954887218043 13.4736842105263  C 7.81954887218043 13.7837388069053  7.55024646604503 14.0350877192982  7.21804511278192 14.0350877192982  C 6.8858437595188 14.0350877192982  6.6165413533834 13.7837388069053  6.61654374653852 13.4736842105263  L 4.81203007518786 13.4736842105263  C 4.81203007518786 14.7139025960421  5.88923969972922 15.719298245614  7.21804511278192 15.719298245614  Z " stroke-width="2" stroke="#797979" fill="none" transform="matrix(1 0 0 1 905 21 )" mask="url(#clip6)" />
    <path d="M 2.10526315789455 11  L 12.3308270676693 11  L 11.4068851772772 9.35289207486932  C 11.4068851772772 9.35289207486932  11.4068851772772 5.61403508771929  11.4068851772772 5.61403508771929  C 11.4068851772772 3.44365291294565  9.53147759988294 1.68421052631578  7.21804511278192 1.68421052631578  C 4.90461262568114 1.68421052631578  3.02920504828689 3.44365291294565  3.02920504828689 5.6140350877194  C 3.02920504828689 5.6140350877194  3.02920504828665 9.35289207486846  3.02920504828665 9.35289207486846  L 2.10526315789455 11  Z " stroke-width="2" stroke="#797979" fill="none" transform="matrix(1 0 0 1 905 21 )" mask="url(#clip6)" />
  </g>
</svg>