<?xml version="1.0" encoding="utf-8"?>
<svg version="1.1" xmlns:xlink="http://www.w3.org/1999/xlink" width="18px" height="11px" xmlns="http://www.w3.org/2000/svg">
  <defs>
    <mask fill="white" id="clip3">
      <path d="M 9 11  C 5.4428140256864 11  2.23947195845631 9.51710815190268  0 7.14842763988054  C 0.872177876131786 3.06611699752108  4.57027439151966 0  9 0  C 13.4297256084803 0  17.1278221238682 3.06611699752108  18 7.14842763988054  C 15.7605280415394 9.51710815190472  12.5571859743112 11  9 11  Z M 9.0529411764694 1.03773584905662  C 5.33982716106027 1.03773584905662  2.13623659895961 3.47961215967626  1.16470588235495 6.90429392351831  C 3.25082980971092 8.91380427260196  6.05654098359764 10.0660377358491  9.0529411764694 10.0660377358491  C 12.0493413693412 10.0660377358491  14.855052543227 8.91380427260214  16.9411764705883 6.90429392351689  C 15.9696457539765 3.47961215967422  12.7660551918769 1.03773584905662  9.0529411764694 1.03773584905662  Z " fill-rule="evenodd" />
    </mask>
  </defs>
  <g transform="matrix(1 0 0 1 -1151 -30 )">
    <path d="M 9 11  C 5.4428140256864 11  2.23947195845631 9.51710815190268  0 7.14842763988054  C 0.872177876131786 3.06611699752108  4.57027439151966 0  9 0  C 13.4297256084803 0  17.1278221238682 3.06611699752108  18 7.14842763988054  C 15.7605280415394 9.51710815190472  12.5571859743112 11  9 11  Z M 9.0529411764694 1.03773584905662  C 5.33982716106027 1.03773584905662  2.13623659895961 3.47961215967626  1.16470588235495 6.90429392351831  C 3.25082980971092 8.91380427260196  6.05654098359764 10.0660377358491  9.0529411764694 10.0660377358491  C 12.0493413693412 10.0660377358491  14.855052543227 8.91380427260214  16.9411764705883 6.90429392351689  C 15.9696457539765 3.47961215967422  12.7660551918769 1.03773584905662  9.0529411764694 1.03773584905662  Z " fill-rule="nonzero" fill="#ffffff" stroke="none" transform="matrix(1 0 0 1 1151 30 )" />
    <path d="M 9 11  C 5.4428140256864 11  2.23947195845631 9.51710815190268  0 7.14842763988054  C 0.872177876131786 3.06611699752108  4.57027439151966 0  9 0  C 13.4297256084803 0  17.1278221238682 3.06611699752108  18 7.14842763988054  C 15.7605280415394 9.51710815190472  12.5571859743112 11  9 11  Z " stroke-width="2" stroke="#797979" fill="none" transform="matrix(1 0 0 1 1151 30 )" mask="url(#clip3)" />
    <path d="M 9.0529411764694 1.03773584905662  C 5.33982716106027 1.03773584905662  2.13623659895961 3.47961215967626  1.16470588235495 6.90429392351831  C 3.25082980971092 8.91380427260196  6.05654098359764 10.0660377358491  9.0529411764694 10.0660377358491  C 12.0493413693412 10.0660377358491  14.855052543227 8.91380427260214  16.9411764705883 6.90429392351689  C 15.9696457539765 3.47961215967422  12.7660551918769 1.03773584905662  9.0529411764694 1.03773584905662  Z " stroke-width="2" stroke="#797979" fill="none" transform="matrix(1 0 0 1 1151 30 )" mask="url(#clip3)" />
  </g>
</svg>