<?xml version="1.0" encoding="utf-8"?>
<svg version="1.1" xmlns:xlink="http://www.w3.org/1999/xlink" width="24px" height="24px" xmlns="http://www.w3.org/2000/svg">
  <defs>
    <mask fill="white" id="clip4">
      <path d="M 12 0  C 18.6274169976 0  24 5.37258300240001  24 12  C 24 18.6274169976  18.6274169976 24  12 24  C 5.37258300240001 24  0 18.6274169976  0 12  C 0 5.37258300240001  5.37258300240001 0  12 0  Z M 12.0519480519481 1.03896103896102  C 5.96964327496073 1.03896103896102  1.03896103896102 5.96964327496073  1.03896103896102 12.051948051948  C 1.03896103896102 18.1342528289354  5.96964327496073 23.0649350649351  12.0519480519481 23.0649350649351  C 18.1342528289354 23.0649350649351  23.0649350649351 18.1342528289354  23.0649350649351 12.051948051948  C 23.0649350649351 5.96964327496073  18.1342528289354 1.03896103896102  12.0519480519481 1.03896103896102  Z " fill-rule="evenodd" />
    </mask>
  </defs>
  <g transform="matrix(1 0 0 1 -1148 -17 )">
    <path d="M 12 0  C 18.6274169976 0  24 5.37258300240001  24 12  C 24 18.6274169976  18.6274169976 24  12 24  C 5.37258300240001 24  0 18.6274169976  0 12  C 0 5.37258300240001  5.37258300240001 0  12 0  Z M 12.0519480519481 1.03896103896102  C 5.96964327496073 1.03896103896102  1.03896103896102 5.96964327496073  1.03896103896102 12.051948051948  C 1.03896103896102 18.1342528289354  5.96964327496073 23.0649350649351  12.0519480519481 23.0649350649351  C 18.1342528289354 23.0649350649351  23.0649350649351 18.1342528289354  23.0649350649351 12.051948051948  C 23.0649350649351 5.96964327496073  18.1342528289354 1.03896103896102  12.0519480519481 1.03896103896102  Z " fill-rule="nonzero" fill="#ffffff" stroke="none" transform="matrix(1 0 0 1 1148 17 )" />
    <path d="M 12 0  C 18.6274169976 0  24 5.37258300240001  24 12  C 24 18.6274169976  18.6274169976 24  12 24  C 5.37258300240001 24  0 18.6274169976  0 12  C 0 5.37258300240001  5.37258300240001 0  12 0  Z " stroke-width="2" stroke="#797979" fill="none" transform="matrix(1 0 0 1 1148 17 )" mask="url(#clip4)" />
    <path d="M 12.0519480519481 1.03896103896102  C 5.96964327496073 1.03896103896102  1.03896103896102 5.96964327496073  1.03896103896102 12.051948051948  C 1.03896103896102 18.1342528289354  5.96964327496073 23.0649350649351  12.0519480519481 23.0649350649351  C 18.1342528289354 23.0649350649351  23.0649350649351 18.1342528289354  23.0649350649351 12.051948051948  C 23.0649350649351 5.96964327496073  18.1342528289354 1.03896103896102  12.0519480519481 1.03896103896102  Z " stroke-width="2" stroke="#797979" fill="none" transform="matrix(1 0 0 1 1148 17 )" mask="url(#clip4)" />
  </g>
</svg>