<?xml version="1.0" encoding="utf-8"?>
<svg version="1.1" xmlns:xlink="http://www.w3.org/1999/xlink" width="8px" height="8px" xmlns="http://www.w3.org/2000/svg">
  <defs>
    <mask fill="white" id="clip5">
      <path d="M 4 0  C 6.20913899920004 0  8 1.79086100079996  8 4  C 8 6.20913899920004  6.20913899920004 8  4 8  C 1.79086100079996 8  0 6.20913899920004  0 4  C 0 1.79086100079996  1.79086100079996 0  4 0  Z M 4.0519480519481 1.03896103896102  C 2.3879212733608 1.03896103896102  1.03896103896102 2.3879212733608  1.03896103896102 4.05194805194805  C 1.03896103896102 5.71597483053529  2.3879212733608 7.06493506493507  4.0519480519481 7.06493506493507  C 5.71597483053529 7.06493506493507  7.06493506493507 5.71597483053529  7.06493506493507 4.05194805194805  C 7.06493506493507 2.3879212733608  5.71597483053529 1.03896103896102  4.0519480519481 1.03896103896102  Z " fill-rule="evenodd" />
    </mask>
  </defs>
  <g transform="matrix(1 0 0 1 -1156 -23 )">
    <path d="M 4 0  C 6.20913899920004 0  8 1.79086100079996  8 4  C 8 6.20913899920004  6.20913899920004 8  4 8  C 1.79086100079996 8  0 6.20913899920004  0 4  C 0 1.79086100079996  1.79086100079996 0  4 0  Z M 4.0519480519481 1.03896103896102  C 2.3879212733608 1.03896103896102  1.03896103896102 2.3879212733608  1.03896103896102 4.05194805194805  C 1.03896103896102 5.71597483053529  2.3879212733608 7.06493506493507  4.0519480519481 7.06493506493507  C 5.71597483053529 7.06493506493507  7.06493506493507 5.71597483053529  7.06493506493507 4.05194805194805  C 7.06493506493507 2.3879212733608  5.71597483053529 1.03896103896102  4.0519480519481 1.03896103896102  Z " fill-rule="nonzero" fill="#ffffff" stroke="none" transform="matrix(1 0 0 1 1156 23 )" />
    <path d="M 4 0  C 6.20913899920004 0  8 1.79086100079996  8 4  C 8 6.20913899920004  6.20913899920004 8  4 8  C 1.79086100079996 8  0 6.20913899920004  0 4  C 0 1.79086100079996  1.79086100079996 0  4 0  Z " stroke-width="2" stroke="#797979" fill="none" transform="matrix(1 0 0 1 1156 23 )" mask="url(#clip5)" />
    <path d="M 4.0519480519481 1.03896103896102  C 2.3879212733608 1.03896103896102  1.03896103896102 2.3879212733608  1.03896103896102 4.05194805194805  C 1.03896103896102 5.71597483053529  2.3879212733608 7.06493506493507  4.0519480519481 7.06493506493507  C 5.71597483053529 7.06493506493507  7.06493506493507 5.71597483053529  7.06493506493507 4.05194805194805  C 7.06493506493507 2.3879212733608  5.71597483053529 1.03896103896102  4.0519480519481 1.03896103896102  Z " stroke-width="2" stroke="#797979" fill="none" transform="matrix(1 0 0 1 1156 23 )" mask="url(#clip5)" />
  </g>
</svg>