<?xml version="1.0" encoding="utf-8"?>
<svg version="1.1" xmlns:xlink="http://www.w3.org/1999/xlink" width="8px" height="4px" xmlns="http://www.w3.org/2000/svg">
  <g transform="matrix(1 0 0 1 -1252 -27 )">
    <path d="M 0.601653170879963 0  C 0.601653170879963 0  7.39834682912004 0  7.39834682912004 0  C 7.55791517120164 0  7.71094800942304 0.0551004386692105  7.82377986617165 0.153179848445348  C 8.05874004460945 0.357419646372467  8.05874004460945 0.688557785716209  7.82377986617165 0.89279758364332  C 7.82377986617165 0.89279758364332  4.42543303705161 3.84682015155467  4.42543303705161 3.84682015155467  C 4.19047285861378 4.05105994948178  3.80952714138619 4.05105994948178  3.57456696294839 3.84682015155467  C 3.57456696294839 3.84682015155467  0.176220133828349 0.892797583643306  0.176220133828349 0.892797583643306  C 0.0633882770797385 0.794718173867176  0 0.661693947539298  0 0.522988716044324  C 0 0.234150023839466  0.269369299915587 0  0.601653170879963 0  Z " fill-rule="nonzero" fill="#999999" stroke="none" transform="matrix(1 0 0 1 1252 27 )" />
  </g>
</svg>