<?xml version="1.0" encoding="utf-8"?>
<svg version="1.1" xmlns:xlink="http://www.w3.org/1999/xlink" width="53px" height="24px" xmlns="http://www.w3.org/2000/svg">
  <g transform="matrix(1 0 0 1 -809 -359 )">
    <path d="M 810 363  A 3 3 0 0 1 813 360 L 858 360  A 3 3 0 0 1 861 363 L 861 379  A 3 3 0 0 1 858 382 L 813 382  A 3 3 0 0 1 810 379 L 810 363  Z " fill-rule="nonzero" fill="#00a0ff" stroke="none" fill-opacity="0.2" />
    <path d="M 809.5 363  A 3.5 3.5 0 0 1 813 359.5 L 858 359.5  A 3.5 3.5 0 0 1 861.5 363 L 861.5 379  A 3.5 3.5 0 0 1 858 382.5 L 813 382.5  A 3.5 3.5 0 0 1 809.5 379 L 809.5 363  Z " stroke-width="1" stroke="#00a0ff" fill="none" stroke-opacity="0.501960784313725" />
  </g>
</svg>