<?xml version="1.0" encoding="utf-8"?>
<svg version="1.1" xmlns:xlink="http://www.w3.org/1999/xlink" width="10px" height="5px" xmlns="http://www.w3.org/2000/svg">
  <g transform="matrix(1 0 0 1 -1400 -1436 )">
    <path d="M 0.752066463599954 0  C 0.752066463599954 0  9.24793353640005 0  9.24793353640005 0  C 9.44739396400206 0  9.6386850117788 0.0688755483365132  9.77972483271456 0.191474810556685  C 10.0734250557618 0.446774557965584  10.0734250557618 0.860697232145261  9.77972483271456 1.11599697955415  C 9.77972483271456 1.11599697955415  5.53179129631452 4.80852518944333  5.53179129631452 4.80852518944333  C 5.23809107326723 5.06382493685222  4.76190892673273 5.06382493685222  4.46820870368548 4.80852518944333  C 4.46820870368548 4.80852518944333  0.220275167285436 1.11599697955413  0.220275167285436 1.11599697955413  C 0.0792353463496732 0.99339771733397  0 0.827117434424122  0 0.653735895055405  C 0 0.292687529799332  0.336711624894484 0  0.752066463599954 0  Z " fill-rule="nonzero" fill="#000000" stroke="none" transform="matrix(1 0 0 1 1400 1436 )" />
  </g>
</svg>