<?xml version="1.0" encoding="utf-8"?>
<svg version="1.1" xmlns:xlink="http://www.w3.org/1999/xlink" width="117px" height="81px" xmlns="http://www.w3.org/2000/svg">
  <defs>
    <mask fill="white" id="clip8">
      <path d="M 0 76.6607142857143  L 0 4.33928571428571  C 0 1.90928571428571  2.27117647058824 0  5.16176470588235 0  L 111.838235294118 0  C 114.728823529412 0  117 1.90928571428571  117 4.33928571428571  L 117 76.6607142857143  C 117 79.0907142857143  114.728823529412 81  111.838235294118 81  L 5.16176470588235 81  C 2.27117647058824 81  0 79.0907142857143  0 76.6607142857143  Z " fill-rule="evenodd" />
    </mask>
  </defs>
  <g transform="matrix(1 0 0 1 -675 -325 )">
    <path d="M 0 76.6607142857143  L 0 4.33928571428571  C 0 1.90928571428571  2.27117647058824 0  5.16176470588235 0  L 111.838235294118 0  C 114.728823529412 0  117 1.90928571428571  117 4.33928571428571  L 117 76.6607142857143  C 117 79.0907142857143  114.728823529412 81  111.838235294118 81  L 5.16176470588235 81  C 2.27117647058824 81  0 79.0907142857143  0 76.6607142857143  Z " fill-rule="nonzero" fill="#000000" stroke="none" transform="matrix(1 0 0 1 675 325 )" />
    <path d="M 0 76.6607142857143  L 0 4.33928571428571  C 0 1.90928571428571  2.27117647058824 0  5.16176470588235 0  L 111.838235294118 0  C 114.728823529412 0  117 1.90928571428571  117 4.33928571428571  L 117 76.6607142857143  C 117 79.0907142857143  114.728823529412 81  111.838235294118 81  L 5.16176470588235 81  C 2.27117647058824 81  0 79.0907142857143  0 76.6607142857143  Z " stroke-width="2" stroke="#ebebeb" fill="none" transform="matrix(1 0 0 1 675 325 )" mask="url(#clip8)" />
  </g>
</svg>