<?xml version="1.0" encoding="utf-8"?>
<svg version="1.1" xmlns:xlink="http://www.w3.org/1999/xlink" width="14px" height="14px" xmlns="http://www.w3.org/2000/svg">
  <g transform="matrix(1 0 0 1 -1246 -22 )">
    <path d="M 13.7531829442901 1.43855522234929  C 13.7531829442901 1.43855522234929  8.19173816663944 7  8.19173816663944 7  C 8.19173816663944 7  13.7531829442901 12.5614447776507  13.7531829442901 12.5614447776507  C 14.0822723519033 12.8905341852638  14.0822723519033 13.424093536677  13.7531829442901 13.7531829442901  C 13.424093536677 14.0822723519033  12.8905341852638 14.0822723519033  12.5614447776507 13.7531829442901  C 12.5614447776507 13.7531829442901  7 8.19173816663944  7 8.19173816663944  C 7 8.19173816663944  1.43855522234929 13.7531829442901  1.43855522234929 13.7531829442901  C 1.10946581473615 14.0822723519033  0.575906463322987 14.0822723519033  0.246817055709852 13.7531829442901  C -0.0822723519032841 13.424093536677  -0.0822723519032841 12.8905341852638  0.246817055709853 12.5614447776507  C 0.246817055709853 12.5614447776507  5.80826183336056 7  5.80826183336056 7  C 5.80826183336056 7  0.246817055709855 1.43855522234929  0.246817055709855 1.43855522234929  C -0.0822723519032811 1.10946581473615  -0.0822723519032811 0.575906463322986  0.246817055709856 0.246817055709851  C 0.57590646332299 -0.0822723519032831  1.10946581473616 -0.0822723519032842  1.43855522234929 0.246817055709851  C 1.43855522234929 0.246817055709851  7 5.80826183336056  7 5.80826183336056  C 7 5.80826183336056  12.5614447776507 0.246817055709854  12.5614447776507 0.246817055709854  C 12.8905341852638 -0.0822723519032802  13.424093536677 -0.0822723519032812  13.7531829442901 0.246817055709854  C 14.0822723519033 0.575906463322989  14.0822723519033 1.10946581473616  13.7531829442901 1.43855522234929  Z " fill-rule="nonzero" fill="#999999" stroke="none" transform="matrix(1 0 0 1 1246 22 )" />
  </g>
</svg>