<?xml version="1.0" encoding="utf-8"?>
<svg version="1.1" xmlns:xlink="http://www.w3.org/1999/xlink" width="100px" height="100px" xmlns="http://www.w3.org/2000/svg">
  <g transform="matrix(1 0 0 1 -247 -89 )">
    <path d="M 297 89  C 325 89  347 111  347 139  C 347 167  325 189  297 189  C 269 189  247 167  247 139  C 247 111  269 89  297 89  Z " fill-rule="nonzero" fill="#ffffff" stroke="none" />
    <path d="M 297 89.5  C 324.72 89.5  346.5 111.28  346.5 139  C 346.5 166.72  324.72 188.5  297 188.5  C 269.28 188.5  247.5 166.72  247.5 139  C 247.5 111.28  269.28 89.5  297 89.5  Z " stroke-width="1" stroke="#797979" fill="none" />
  </g>
</svg>