<?xml version="1.0" encoding="utf-8"?>
<svg version="1.1" xmlns:xlink="http://www.w3.org/1999/xlink" width="12px" height="3px" xmlns="http://www.w3.org/2000/svg">
  <g transform="matrix(1 0 0 1 -939 -807 )">
    <path d="M 3 1.5  C 3 0.671572875299944  2.32842712470006 0  1.5 0  C 0.671572875299944 0  0 0.671572875299944  0 1.5  C 0 2.32842712470006  0.671572875299944 3  1.5 3  C 2.32842712470006 3  3 2.32842712470006  3 1.5  Z M 8 1.5  C 8 0.671572875299944  7.32842712470006 0  6.5 0  C 5.67157287529994 0  5 0.671572875299944  5 1.5  C 5 2.32842712470006  5.67157287529994 3  6.5 3  C 7.32842712470006 3  8 2.32842712470006  8 1.5  Z M 10.5 0  C 9.67157287529994 0  9 0.671572875299944  9 1.5  C 9 2.32842712470006  9.67157287529994 3  10.5 3  C 11.3284271247001 3  12 2.32842712470006  12 1.5  C 12 0.671572875299944  11.3284271247001 0  10.5 0  Z " fill-rule="nonzero" fill="#666666" stroke="none" transform="matrix(1 0 0 1 939 807 )" />
  </g>
</svg>