<?xml version="1.0" encoding="utf-8"?>
<svg version="1.1" xmlns:xlink="http://www.w3.org/1999/xlink" width="4px" height="8px" xmlns="http://www.w3.org/2000/svg">
  <g transform="matrix(1 0 0 1 -1205 -804 )">
    <path d="M 0.11699493536816 0.757546085415458  C 0.11699493536816 0.757546085415458  3.03565278554751 4  3.03565278554751 4  C 3.03565278554751 4  0.116994935368161 7.24245391458454  0.116994935368161 7.24245391458454  C -0.038998311789384 7.41575306126721  -0.038998311789384 7.69672649330534  0.116994935368161 7.870025639988  C 0.272988182525709 8.04332478667066  0.525903207600166 8.04332478667066  0.681896454757713 7.870025639988  C 0.681896454757713 7.870025639988  3.88300506463184 4.31378586270173  3.88300506463184 4.31378586270173  C 4.03899831178939 4.14048671601906  4.03899831178939 3.85951328398093  3.88300506463184 3.68621413729827  C 3.88300506463184 3.68621413729827  0.681896454757712 0.129974360011998  0.681896454757712 0.129974360011998  C 0.525903207600165 -0.0433247866706662  0.272988182525707 -0.0433247866706661  0.11699493536816 0.129974360011998  C -0.0389983117893884 0.303273506694663  -0.0389983117893884 0.584246938732793  0.11699493536816 0.757546085415458  Z " fill-rule="nonzero" fill="#999999" stroke="none" transform="matrix(1 0 0 1 1205 804 )" />
  </g>
</svg>