<?xml version="1.0" encoding="utf-8"?>
<svg version="1.1" xmlns:xlink="http://www.w3.org/1999/xlink" width="4px" height="8px" xmlns="http://www.w3.org/2000/svg">
  <g transform="matrix(1 0 0 1 -757 -804 )">
    <path d="M 3.88300506463184 0.757546085415458  C 3.88300506463184 0.757546085415458  0.964347214452489 4  0.964347214452489 4  C 0.964347214452489 4  3.88300506463184 7.24245391458454  3.88300506463184 7.24245391458454  C 4.03899831178938 7.41575306126721  4.03899831178938 7.69672649330534  3.88300506463184 7.870025639988  C 3.72701181747429 8.04332478667066  3.47409679239983 8.04332478667066  3.31810354524229 7.870025639988  C 3.31810354524229 7.870025639988  0.11699493536816 4.31378586270173  0.11699493536816 4.31378586270173  C -0.0389983117893863 4.14048671601906  -0.0389983117893872 3.85951328398093  0.11699493536816 3.68621413729827  C 0.11699493536816 3.68621413729827  3.31810354524229 0.129974360011998  3.31810354524229 0.129974360011998  C 3.47409679239984 -0.0433247866706662  3.72701181747429 -0.0433247866706661  3.88300506463184 0.129974360011998  C 4.03899831178939 0.303273506694663  4.03899831178939 0.584246938732793  3.88300506463184 0.757546085415458  Z " fill-rule="nonzero" fill="#999999" stroke="none" transform="matrix(1 0 0 1 757 804 )" />
  </g>
</svg>