<?xml version="1.0" encoding="utf-8"?>
<svg version="1.1" xmlns:xlink="http://www.w3.org/1999/xlink" width="11px" height="11px" xmlns="http://www.w3.org/2000/svg">
  <g transform="matrix(1 0 0 1 -279 -1595 )">
    <path d="M 4.67454300676143 11  C 4.20514685856823 11  3.82462609644117 10.6211640190876  3.82462609644117 10.1538461538462  C 3.82462609644117 10.1538461538462  3.82462609644117 4.78244373690967  3.82462609644117 4.78244373690967  C 3.82462609644117 4.78244373690967  0.268626544885173 1.46345455734933  0.268626544885173 1.46345455734933  C -0.0738154087018115 1.1438366490497  -0.0911656620093194 0.608360198261091  0.229873669478456 0.267434429408142  C 0.390548285256739 0.0968069967334311  0.614995047251051 0  0.849919675984918 0  C 0.849919675984918 0  10.1500830896797 0  10.1500830896797 0  C 10.6194792378729 0  11 0.378835980912409  11 0.846153846153846  C 11 1.08003833032597  10.9027624776097 1.30349133921679  10.7313762207795 1.4634545573493  C 10.7313762207795 1.4634545573493  7.22429373772221 4.73678703232124  7.22429373772221 4.73678703232124  C 7.22429373772221 4.73678703232124  7.22429373772221 10.1538461538462  7.22429373772221 10.1538461538462  C 7.22429373772221 10.6211640190876  6.84377297559513 11  6.37437682740193 11  C 6.37437682740193 11  4.67454300676143 11  4.67454300676143 11  Z M 5.09718151575111 4.2325723364716  L 5.09718151575111 9.73076923076923  L 5.95201874212086 9.73076923076923  L 5.95201874212086 4.18691563188321  L 9.09615384615384 1.26923076923077  L 1.90384615384615 1.26923076923077  L 5.09718151575111 4.2325723364716  Z " fill-rule="nonzero" fill="#999999" stroke="none" transform="matrix(1 0 0 1 279 1595 )" />
  </g>
</svg>