<?xml version="1.0" encoding="utf-8"?>
<svg version="1.1" xmlns:xlink="http://www.w3.org/1999/xlink" width="7px" height="5px" xmlns="http://www.w3.org/2000/svg">
  <g transform="matrix(1 0 0 1 -424 -1601 )">
    <path d="M 3.0330259852654 0.232057195738605  C 3.29092861217057 -0.077352398579535  3.70907138782943 -0.077352398579535  3.9669740147346 0.232057195738605  C 3.9669740147346 0.232057195738605  6.80657302982112 3.63876611463343  6.80657302982112 3.63876611463343  C 7.06447565672627 3.94817570895162  7.06447565672627 4.44982777871223  6.80657302982112 4.75923737303043  C 6.80657302982112 4.75923737303043  6.79931677912938 4.76794280426134  6.79931677912938 4.76794280426134  C 6.54141415222421 5.07735239857954  6.12327137656536 5.07735239857954  5.86536874966021 4.76794280426134  C 5.86536874966021 4.76794280426134  3.5 1.93017494579601  3.5 1.93017494579601  C 3.5 1.93017494579601  1.13463125033979 4.76794280426134  1.13463125033979 4.76794280426134  C 0.876728623434644 5.07735239857954  0.458585847775794 5.07735239857954  0.200683220870616 4.76794280426134  C 0.200683220870616 4.76794280426134  0.193426970178876 4.75923737303043  0.193426970178876 4.75923737303043  C -0.0644756567262732 4.44982777871223  -0.0644756567262732 3.94817570895162  0.193426970178876 3.63876611463343  C 0.193426970178876 3.63876611463343  3.0330259852654 0.232057195738605  3.0330259852654 0.232057195738605  Z " fill-rule="nonzero" fill="#999999" stroke="none" transform="matrix(1 0 0 1 424 1601 )" />
  </g>
</svg>