<?xml version="1.0" encoding="utf-8"?>
<svg version="1.1" xmlns:xlink="http://www.w3.org/1999/xlink" width="8px" height="8px" xmlns="http://www.w3.org/2000/svg">
  <g transform="matrix(1 0 0 1 -1860 -353 )">
    <path d="M 1864 354  C 1865.68 354  1867 355.32  1867 357  C 1867 358.68  1865.68 360  1864 360  C 1862.32 360  1861 358.68  1861 357  C 1861 355.32  1862.32 354  1864 354  Z " fill-rule="nonzero" fill="#ffffff" stroke="none" />
    <path d="M 1864 354  C 1865.68 354  1867 355.32  1867 357  C 1867 358.68  1865.68 360  1864 360  C 1862.32 360  1861 358.68  1861 357  C 1861 355.32  1862.32 354  1864 354  Z " stroke-width="2" stroke="#808bc6" fill="none" />
  </g>
</svg>