<?xml version="1.0" encoding="utf-8"?>
<svg version="1.1" xmlns:xlink="http://www.w3.org/1999/xlink" width="257px" height="97px" xmlns="http://www.w3.org/2000/svg">
  <g transform="matrix(1 0 0 1 -2369 -375 )">
    <path d="M 255.80547112462 95.5083333333333  L 0.466869300911832 95.5083333333333  C 0.466869300911832 95.5083333333333  0 7.66666666666663  0.077811550151999 7.69666666666672  C 20.9173630454967 7  34.4964539007092 33.0666666666667  45.6494427558257 33.0666666666667  C 56.8024316109423 33.0666666666667  73.686165273909 -1  91.2988855116514 0.288888888888778  C 108.911605749394 1.57777777777756  113.276348175404 6.70855793162559  138.245187436677 9.4666666666667  C 152.126276694522 11  166.863509749304 62.3333333333333  185.450861195542 63.8777777777777  C 204.03821264178 65.4222222222222  219.750799389275 67.3555555555554  233.953394123607 65.8444444444443  C 248.155988857939 64.3333333333333  239.123491179201 31.6666666666666  255.22188449848 33.0666666666667  C 255.762302692665 33  255.80547112462 95.5083333333333  255.80547112462 95.5083333333333  Z " fill-rule="nonzero" fill="#808bc6" stroke="none" transform="matrix(1 0 0 1 2369 375 )" />
  </g>
</svg>