<?xml version="1.0" encoding="utf-8"?>
<svg version="1.1" xmlns:xlink="http://www.w3.org/1999/xlink" width="8px" height="8px" xmlns="http://www.w3.org/2000/svg">
  <g transform="matrix(1 0 0 1 -1860 -291 )">
    <path d="M 1864 292  C 1865.68 292  1867 293.32  1867 295  C 1867 296.68  1865.68 298  1864 298  C 1862.32 298  1861 296.68  1861 295  C 1861 293.32  1862.32 292  1864 292  Z " fill-rule="nonzero" fill="#ffffff" stroke="none" />
    <path d="M 1864 292  C 1865.68 292  1867 293.32  1867 295  C 1867 296.68  1865.68 298  1864 298  C 1862.32 298  1861 296.68  1861 295  C 1861 293.32  1862.32 292  1864 292  Z " stroke-width="2" stroke="#2db7f5" fill="none" />
  </g>
</svg>