<?xml version="1.0" encoding="utf-8"?>
<svg version="1.1" xmlns:xlink="http://www.w3.org/1999/xlink" width="258px" height="146px" xmlns="http://www.w3.org/2000/svg">
  <g transform="matrix(1 0 0 1 -2369 -325 )">
    <path d="M 256.091364826072 144.508333333333  L 0.46739108409319 144.508333333333  C 0.46739108409319 144.508333333333  1.18981481481479 24.6666666666666  0.713888888888889 24.6666666666666  C 28.2890054094333 13.1543668978636  26.1759259259258 10  46.6407407407407 10  C 67.1055555555556 10  69.9379657773274 86.7111111111112  87.5703703703703 88  C 105.202774963413 89.2888888888888  111.11806984126 -2.09144206837448  136.114814814815 0.666666666666629  C 150.011417876843 2.19999999999993  168.226795564562 55.5984126984126  186.834920634921 57.1428571428571  C 205.44304570528 58.6873015873016  209.738674997186 23.5111111111111  223.957142857143 22  C 238.1756107171 20.4888888888889  239.974979595857 60.0285714285714  256.091364826072 61.4285714285714  C 256.632387003265 61.3619047619047  256.091364826072 144.508333333333  256.091364826072 144.508333333333  Z " fill-rule="nonzero" fill="#2db6f4" stroke="none" transform="matrix(1 0 0 1 2369 325 )" />
  </g>
</svg>