<?xml version="1.0" encoding="utf-8"?>
<svg version="1.1" xmlns:xlink="http://www.w3.org/1999/xlink" width="8px" height="6px" xmlns="http://www.w3.org/2000/svg">
  <defs>
    <mask fill="white" id="clip18">
      <path d="M 4.05852618061475 3.69805916040779  C 4.05852618061475 3.69805916040779  6.64815835324457 0.299696091729289  6.64815835324457 0.299696091729289  C 6.94626462367807 -0.0748830007259701  7.44470001910483 -0.0903399409562252  7.75881751575667 0.26641478568931  C 8.06141514071334 0.610085972826833  8.08285579331629 1.1754447965142  7.80285412483767 1.55805239558124  C 7.80285412483767 1.55805239558124  4.65100195294805 5.69408921447896  4.65100195294805 5.69408921447896  C 4.50510924581126 5.88551641485955  4.29800802719652 5.99717808655399  4.07873447683768 5.99994726589253  C 3.85932680805138 6.00271813899658  3.65011334520756 5.89617609372045  3.50077750355296 5.70818429057431  C 3.50077750355296 5.70818429057431  0.217743552709366 1.57502788841365  0.217743552709366 1.57502788841365  C 0.0264509758686106 1.33782232762935  -0.0447627933133106 0.999334765426915  0.0279457752286955 0.684470343559444  C 0.101892001192383 0.3642462468096  0.314708376166361 0.11240235967498  0.589388097133235 0.0290403669266208  C 0.868519893867868 -0.0556727772884749  1.16273993765251 0.0485924151622729  1.35479522650276 0.294266171905851  C 1.35479522650276 0.294266171905851  4.05852618061475 3.69805916040779  4.05852618061475 3.69805916040779  Z " fill-rule="evenodd" />
    </mask>
  </defs>
  <g transform="matrix(1 0 0 1 -1224 -137 )">
    <path d="M 4.05852618061475 3.69805916040779  C 4.05852618061475 3.69805916040779  6.64815835324457 0.299696091729289  6.64815835324457 0.299696091729289  C 6.94626462367807 -0.0748830007259701  7.44470001910483 -0.0903399409562252  7.75881751575667 0.26641478568931  C 8.06141514071334 0.610085972826833  8.08285579331629 1.1754447965142  7.80285412483767 1.55805239558124  C 7.80285412483767 1.55805239558124  4.65100195294805 5.69408921447896  4.65100195294805 5.69408921447896  C 4.50510924581126 5.88551641485955  4.29800802719652 5.99717808655399  4.07873447683768 5.99994726589253  C 3.85932680805138 6.00271813899658  3.65011334520756 5.89617609372045  3.50077750355296 5.70818429057431  C 3.50077750355296 5.70818429057431  0.217743552709366 1.57502788841365  0.217743552709366 1.57502788841365  C 0.0264509758686106 1.33782232762935  -0.0447627933133106 0.999334765426915  0.0279457752286955 0.684470343559444  C 0.101892001192383 0.3642462468096  0.314708376166361 0.11240235967498  0.589388097133235 0.0290403669266208  C 0.868519893867868 -0.0556727772884749  1.16273993765251 0.0485924151622729  1.35479522650276 0.294266171905851  C 1.35479522650276 0.294266171905851  4.05852618061475 3.69805916040779  4.05852618061475 3.69805916040779  Z " fill-rule="nonzero" fill="#858e98" stroke="none" transform="matrix(1 0 0 1 1224 137 )" />
    <path d="M 4.05852618061475 3.69805916040779  C 4.05852618061475 3.69805916040779  6.64815835324457 0.299696091729289  6.64815835324457 0.299696091729289  C 6.94626462367807 -0.0748830007259701  7.44470001910483 -0.0903399409562252  7.75881751575667 0.26641478568931  C 8.06141514071334 0.610085972826833  8.08285579331629 1.1754447965142  7.80285412483767 1.55805239558124  C 7.80285412483767 1.55805239558124  4.65100195294805 5.69408921447896  4.65100195294805 5.69408921447896  C 4.50510924581126 5.88551641485955  4.29800802719652 5.99717808655399  4.07873447683768 5.99994726589253  C 3.85932680805138 6.00271813899658  3.65011334520756 5.89617609372045  3.50077750355296 5.70818429057431  C 3.50077750355296 5.70818429057431  0.217743552709366 1.57502788841365  0.217743552709366 1.57502788841365  C 0.0264509758686106 1.33782232762935  -0.0447627933133106 0.999334765426915  0.0279457752286955 0.684470343559444  C 0.101892001192383 0.3642462468096  0.314708376166361 0.11240235967498  0.589388097133235 0.0290403669266208  C 0.868519893867868 -0.0556727772884749  1.16273993765251 0.0485924151622729  1.35479522650276 0.294266171905851  C 1.35479522650276 0.294266171905851  4.05852618061475 3.69805916040779  4.05852618061475 3.69805916040779  Z " stroke-width="2" stroke="#ff0505" fill="none" transform="matrix(1 0 0 1 1224 137 )" mask="url(#clip18)" />
  </g>
</svg>